<svg width="34" height="14" viewBox="0 0 34 14" fill="none" xmlns="http://www.w3.org/2000/svg">
<path d="M8.7133 11.9873C8.93368 12.0438 9.15317 12.0259 9.31813 11.9282L9.32345 11.925C9.40328 11.8778 9.5019 11.7894 9.53455 11.6504C9.5672 11.5113 9.51427 11.3856 9.46505 11.3025C9.36335 11.1308 9.16666 10.993 8.95489 10.9389L3.65605 9.56729C3.08626 9.4186 2.95495 9.0999 2.92615 8.92994C2.89601 8.76512 2.91995 8.45608 3.33292 8.1762L5.15797 7.12251C10.4686 4.05641 16.5733 3.59623 22.0086 5.34604C26.0607 6.65052 29.7379 9.1826 32.4332 12.7772C32.632 13.0423 33.0081 13.0961 33.2732 12.8973C33.5383 12.6985 33.5921 12.3224 33.3933 12.0573C30.5447 8.25822 26.6578 5.58211 22.3764 4.20377C16.6335 2.35495 10.1756 2.83994 4.55797 6.08328L2.72935 7.13903C2.58547 7.22211 2.43175 7.30129 2.26564 7.29807C2.08826 7.29462 1.963 7.22665 1.88818 7.16591C1.74966 7.05347 1.53321 6.78521 1.67649 6.21404L3.0236 0.867371C3.07993 0.646965 3.04945 0.425628 2.95306 0.250817C2.90385 0.167757 2.81571 0.055396 2.66947 0.0148597C2.54044 -0.0209082 2.3918 0.00730654 2.26329 0.105892C2.11881 0.213936 2.01042 0.382888 1.96021 0.577224L0.0196164 8.84157C-0.0722094 9.23263 0.167288 9.63685 0.551103 9.73862L8.7133 11.9873Z" fill="white"/>
</svg>
