<svg width="34" height="14" viewBox="0 0 34 14" fill="none" xmlns="http://www.w3.org/2000/svg">
<path d="M24.8 11.9873C24.5796 12.0438 24.3601 12.0259 24.1952 11.9282L24.1899 11.925C24.11 11.8778 24.0114 11.7894 23.9788 11.6504C23.9461 11.5113 23.999 11.3856 24.0483 11.3025C24.15 11.1308 24.3466 10.993 24.5584 10.9389L29.8573 9.56729C30.427 9.4186 30.5584 9.0999 30.5872 8.92994C30.6173 8.76512 30.5934 8.45608 30.1804 8.1762L28.3553 7.12251C23.0447 4.05641 16.94 3.59623 11.5047 5.34604C7.45263 6.65052 3.77539 9.1826 1.08009 12.7772C0.881302 13.0423 0.505226 13.0961 0.240108 12.8973C-0.025013 12.6985 -0.0787773 12.3224 0.120014 12.0573C2.96865 8.25822 6.85549 5.58211 11.1369 4.20377C16.8798 2.35495 23.3377 2.83994 28.9553 6.08328L30.784 7.13903C30.9278 7.22211 31.0816 7.30129 31.2477 7.29807C31.425 7.29462 31.5503 7.22665 31.6251 7.16591C31.7636 7.05347 31.9801 6.78521 31.8368 6.21404L30.4897 0.867371C30.4334 0.646965 30.4639 0.425628 30.5602 0.250817C30.6095 0.167757 30.6976 0.055396 30.8438 0.0148597C30.9729 -0.0209082 31.1215 0.00730654 31.25 0.105892C31.3945 0.213936 31.5029 0.382888 31.5531 0.577224L33.4937 8.84157C33.5855 9.23263 33.346 9.63685 32.9622 9.73862L24.8 11.9873Z" fill="white"/>
</svg>
