<svg width="68" height="68" viewBox="0 0 68 68" fill="none" xmlns="http://www.w3.org/2000/svg">
<path d="M62.6525 15.7071C62.413 15.3332 61.9506 15.173 61.5273 15.3071L61.3284 15.3702C61.259 15.3922 61.1875 15.4065 61.115 15.413L56.3004 15.8419C55.9886 15.8696 55.7078 16.0418 55.5416 16.3071L54.6863 17.6727C54.4442 18.0594 53.9709 18.2331 53.5361 18.0949L53.3704 18.0423C53.2346 17.9992 53.1095 17.9274 53.0037 17.832L49.0563 14.2737C48.9226 14.1531 48.8238 13.9986 48.7706 13.8266L48.2263 12.0678L47.4751 10.1347C47.4182 9.9883 47.3276 9.85735 47.2106 9.75248L44.8833 7.66531C44.749 7.54489 44.5847 7.46302 44.4076 7.42839L42.5142 7.05797C41.9689 6.95129 41.4557 7.35266 41.4277 7.90762C41.4146 8.16914 41.5144 8.42371 41.7018 8.60657L44.5396 11.3752L45.2623 12.2264C45.6774 12.7152 45.5315 13.4629 44.9631 13.7599L44.7072 13.8936C44.4775 14.0137 44.2101 14.0398 43.9614 13.9665L42.9463 13.6674L41.4878 13.0591C41.1011 12.8979 40.8559 12.5127 40.8736 12.0941L40.8861 11.7963C40.9038 11.3759 40.6565 10.9894 40.2673 10.8294L39.2484 10.4104C38.6772 10.1755 38.0318 10.5093 37.8935 11.1112L37.3826 13.3341C37.2966 13.7085 37.0037 14.0006 36.629 14.0855L35.3447 14.3765C34.8437 14.49 34.5102 14.9647 34.5733 15.4745L34.6479 16.0776C34.7011 16.5079 35.0256 16.8549 35.4514 16.9368L37.3614 17.3043C37.9098 17.4099 38.4383 17.0458 38.5352 16.4958L38.8159 14.9023C38.9098 14.369 39.4111 14.0074 39.9468 14.0865L41.7824 14.3576C41.9091 14.3763 42.031 14.4192 42.1416 14.484L43.13 15.0627C43.2833 15.1525 43.4577 15.1998 43.6353 15.1998H44.9755C45.3544 15.1998 45.7008 15.414 45.8701 15.753L47.0491 18.1139C47.0961 18.2081 47.1577 18.2942 47.2316 18.3692L50.7997 21.9882C51.0293 22.2211 51.1305 22.5515 51.0708 22.8731L51.0422 23.0266C50.9453 23.5477 50.4586 23.9027 49.9327 23.8358L47.9109 23.5782C47.7129 23.553 47.512 23.5876 47.3338 23.6775L42.1547 26.2925C42.0328 26.354 41.9248 26.4399 41.8374 26.5448L38.059 31.076C37.9615 31.1929 37.892 31.3306 37.8558 31.4784L37.5693 32.6475C37.4597 33.0949 37.0587 33.4095 36.598 33.4095H36.145C36.0005 33.4095 35.8577 33.3782 35.7265 33.3177L33.6357 32.3542C33.3665 32.2301 33.0562 32.2319 32.7885 32.3589L31.3043 33.0631C30.8784 33.2652 30.6515 33.7373 30.7597 34.1961L30.9018 34.7987C31.0388 35.3797 31.7763 35.5614 32.1675 35.1104C32.3014 34.9561 32.4936 34.8648 32.6978 34.8584L33.3042 34.8395C33.8907 34.8213 34.3667 35.3095 34.3337 35.8953L34.2991 36.5105C34.2729 36.9748 34.5703 37.3958 35.0166 37.5265L35.6505 37.712C35.8303 37.7646 35.9917 37.8668 36.1164 38.0067L37.1791 39.2002C37.4334 39.4858 37.8284 39.6013 38.1965 39.4978L40.1098 38.96C40.2485 38.921 40.394 38.9124 40.5363 38.9349L43.4333 39.3921L46.9782 40.345C47.0251 40.3576 47.0728 40.3668 47.1211 40.3725L48.4737 40.5314C48.7186 40.5602 48.9443 40.6784 49.1073 40.8634L51.8096 43.9301C51.8795 44.0096 51.9617 44.0774 52.0529 44.1311L57.0025 47.0415C57.4621 47.3118 57.6288 47.895 57.3816 48.3673L54.1593 54.5224C54.0573 54.7171 53.8941 54.8728 53.6948 54.9654L50.3439 56.5228C50.1038 56.6344 49.9178 56.8366 49.8266 57.0852L48.5508 60.5618C48.4778 60.7608 48.3435 60.9314 48.1672 61.0491L42.9115 64.5575C42.7119 64.6907 42.5668 64.8913 42.5029 65.1227L42.4332 65.3746C42.2301 66.109 42.8901 66.7873 43.6211 66.5719C57.7071 62.4223 68 49.4246 68 33.9961C67.9958 27.2666 66.0336 20.9854 62.6525 15.7071Z" fill="black"/>
<path d="M37.9371 51.8651C37.9175 51.7988 37.892 51.7379 37.8592 51.677L35.6738 47.626C35.5219 47.3444 35.5139 47.007 35.6524 46.7185L37.1985 43.4973C37.4644 42.9432 37.1723 42.2826 36.5834 42.1065L35.675 41.8349C35.5155 41.7872 35.3704 41.7004 35.253 41.5825L33.0851 39.4058C32.9509 39.2711 32.7811 39.1774 32.5955 39.1357L27.6463 38.0256C27.3803 37.9659 27.1564 37.7875 27.0389 37.5416L26.1677 35.7192C25.9698 35.3053 25.3481 35.4462 25.3481 35.905C25.3481 36.143 25.1552 36.3359 24.9173 36.3359H24.7987C24.6242 36.3359 24.46 36.253 24.3565 36.1126L19.8434 29.9946C19.7165 29.8227 19.6481 29.6146 19.6481 29.401V24.5865C19.6481 24.4015 19.5968 24.2202 19.4999 24.0626L16.4329 19.0764C16.2176 18.7264 15.8102 18.5437 15.4057 18.6158L10.4913 19.4916C10.4334 19.5019 10.3746 19.5071 10.3158 19.5071H6.88175C6.68702 19.5071 6.49652 19.4503 6.33365 19.3435L5.28366 18.6555C4.97713 18.4546 4.95722 18.0126 5.24444 17.785L5.32014 17.725C5.75101 17.3835 5.4196 16.6949 4.88394 16.8186C4.74573 16.8505 4.62663 16.9379 4.55573 17.0607C1.67553 22.0515 0 27.8245 0 34.0026C0 52.775 15.221 67.9999 33.9989 67.9999C35.1157 67.9999 36.2158 67.9238 37.3051 67.8113C37.8413 67.7559 38.229 67.2774 38.1827 66.7402L37.9253 63.7533C37.9156 63.6415 37.9245 63.5303 37.9522 63.4216C38.1998 62.4495 39.4716 57.4474 39.4716 57.2598C39.4696 57.0667 38.1489 52.5831 37.9371 51.8651Z" fill="black"/>
<path d="M12.5651 10.9829C12.6108 10.9697 12.6574 10.9598 12.7045 10.9532L18.4919 10.1464C18.6121 10.1297 18.7282 10.0912 18.8345 10.0329L21.0962 8.79323C21.3277 8.66633 21.6 8.63614 21.8537 8.70924L24.4273 9.45077C24.5351 9.48184 24.6474 9.49453 24.7594 9.48833L29.0825 9.24903C29.4044 9.23122 29.6979 9.05934 29.871 8.78737L30.9554 7.08298C31.1704 6.74509 31.5662 6.56805 31.9614 6.63304L33.683 6.9162C33.7675 6.9301 33.8534 6.93309 33.9386 6.9251L39.4962 6.4041C39.7448 6.3808 39.9756 6.26535 40.1434 6.08047L41.4733 4.61496C41.5282 4.55438 41.5904 4.50077 41.6585 4.45534L43.5941 3.16279C43.801 3.02459 44.0521 2.96852 44.2982 3.00554L47.2006 3.44215C47.2359 3.44746 47.2719 3.44745 47.3072 3.44211C47.6566 3.38927 47.7224 2.92274 47.3979 2.78304C43.2832 1.01179 38.7633 0 33.9964 0C23.4486 0 14.0167 4.80414 7.78617 12.3488C7.78204 12.3538 7.78559 12.3613 7.79206 12.3613C7.79278 12.3613 7.7935 12.3612 7.79419 12.361L12.5651 10.9829ZM35.4339 3.3809L38.4122 1.74159C38.7189 1.57281 39.0915 1.57665 39.3946 1.75171L39.8348 2.00596C40.4533 2.36321 40.5087 3.23504 39.9403 3.66764L38.133 5.04317C37.9861 5.15501 37.811 5.22398 37.6273 5.24243L35.126 5.49357C34.9315 5.51309 34.7362 5.46576 34.5723 5.35938C34.0442 5.01674 34.0515 4.24137 34.5859 3.90872L35.4339 3.3809ZM24.2296 4.55701C24.7509 4.16444 25.7454 3.9087 26.3478 4.15965C26.5632 4.24939 26.8034 4.25981 27.0258 4.18905L27.9213 3.90414C28.3691 3.76167 28.8556 3.95017 29.0906 4.35713L29.1266 4.41956C29.4563 4.9908 29.1524 5.7192 28.5145 5.8867L25.5497 6.66518C25.293 6.73259 25.0199 6.69516 24.7908 6.56114L23.155 5.60428C23.0018 5.51468 22.9987 5.41723 23.1464 5.31887C23.4011 5.14918 23.8324 4.85618 24.2296 4.55701Z" fill="black"/>
</svg>
