<svg fill="none" xmlns="http://www.w3.org/2000/svg" viewBox="0 0 174 85">
  <path d="M121.519 57.614h3.867V34.042c-1.462-.614-2.728-1.474-3.867-2.456v26.028z" fill="currentColor"/>
  <path d="M171.688 29.675c-1.52-1.474-3.557-2.211-6.089-2.211h-35.577s-2.153.123-3.488-1.106c-.759-.737-1.139-1.786-1.139-3.137V1h-3.868v22.087c0 2.523.76 4.489 2.279 5.907 2.475 2.277 5.836 2.21 6.285 2.21h35.715c1.393 0 2.532.369 3.234 1.106 1.266 1.295 1.14 3.383 1.14 3.383v21.92h3.81V35.772c.046-.38.046-3.764-2.302-6.097z" fill="currentColor"/>
  <path d="M112.7 57.61v-3.752H68.755s-2.152.123-3.487-1.105c-.76-.737-1.14-1.787-1.14-3.138v-13.97s-.126-2.087 1.14-3.382c.702-.737 1.841-1.106 3.234-1.106h44.267v-3.752H68.686c-2.532 0-4.57.737-6.089 2.211-2.348 2.334-2.348 5.717-2.279 6.097v13.723c0 2.457.76 4.489 2.28 5.907 2.405 2.278 5.893 2.278 6.284 2.211l43.818.056z" fill="currentColor"/>
  <path d="M.07 62.17c0-.369-.07-3.696 2.278-6.097 1.462-1.474 3.488-2.21 6.089-2.21h35.577s2.152.122 3.487-1.106c.76-.737 1.14-1.787 1.14-3.138V35.65s.127-2.088-1.14-3.383c-.76-.737-1.841-1.106-3.234-1.106H8.31c-1.393 0-2.474.369-3.234 1.106-1.266 1.295-1.14 3.383-1.14 3.383v15.376A12.935 12.935 0 00.07 53.36V35.706c0-.313-.069-3.696 2.279-6.097 1.462-1.474 3.488-2.21 6.089-2.21h35.715c2.532 0 4.57.736 6.089 2.21 2.348 2.334 2.348 5.717 2.279 6.097v13.78c0 2.456-.76 4.488-2.28 5.906-2.405 2.278-5.892 2.211-6.284 2.211H8.241c-1.393 0-2.475.368-3.234 1.105-1.266 1.296-1.14 3.384-1.14 3.384V84H0l.07-21.83z" fill="currentColor"/>
</svg>

