<svg width="27" height="26" viewBox="0 0 27 26" fill="none" xmlns="http://www.w3.org/2000/svg">
<path d="M0 13.1485C0 13.6107 0.411342 14.0068 0.89124 14.0068H9.3923C11.0834 14.0068 12.4545 15.3271 12.4545 16.9556V25.1418C12.4545 25.6039 12.8658 26 13.3457 26H13.6543C14.1342 26 14.5455 25.6039 14.5455 25.1418V16.9556C14.5455 15.3271 15.9166 14.0068 17.6077 14.0068H26.1088C26.5887 14.0068 27 13.6107 27 13.1485V12.8515C27 12.3893 26.5887 11.9932 26.1088 11.9932H17.6077C15.9166 11.9932 14.5455 10.6729 14.5455 9.04443V0.858231C14.5455 0.396107 14.1342 0 13.6543 0H13.3457C12.8658 0 12.4545 0.396107 12.4545 0.858231V9.04443C12.4545 10.6729 11.0834 11.9932 9.3923 11.9932H0.89124C0.411342 11.9932 0 12.3893 0 12.8515V13.1485Z" fill="#E6E6E6"/>
</svg>
