{
	"asset":{
		"version":"2.0",
		"generator":"Created using the official Cinema 4D glTF Exporter 1.000x290161"
	},
	"scenes":[{
		"nodes":[0]
	}],
	"nodes":[{
		"name":"Null",
		"translation":[0.4166666567325592,
		7.401487216851996e-18,
		4.625929407134921e-18],
		"rotation":[0.0,
		0.0,
		0.0,
		-1.0],
		"scale":[1.0,
		1.0,
		1.0],
		"children":[1,
		2,
		3]
	},
	{
		"name":"Manufacturer-fat",
		"translation":[-0.1666666716337204,
		-7.401487216851996e-18,
		-4.625929407134921e-18],
		"rotation":[0.0,
		0.0,
		0.0,
		-1.0],
		"scale":[1.0,
		1.0,
		1.0],
		"mesh":0
	},
	{
		"name":"city-torus",
		"translation":[0.5833333134651184,
		1.4802974433703993e-17,
		9.251858814269842e-18],
		"rotation":[0.0,
		0.0,
		0.0,
		-1.0],
		"scale":[1.0,
		1.0,
		1.0],
		"mesh":1
	},
	{
		"name":"Manufacturer-tall",
		"translation":[-0.4166666567325592,
		-7.401487216851996e-18,
		-4.625929407134921e-18],
		"rotation":[0.0,
		0.0,
		0.0,
		-1.0],
		"scale":[1.0,
		1.0,
		1.0],
		"mesh":2
	}],
	"meshes":[{
		"primitives":[{
			"attributes":{
				"POSITION":1,
				"NORMAL":2,
				"TEXCOORD_0":3
			},
			"indices":0,
			"material":0
		}]
	},
	{
		"primitives":[{
			"attributes":{
				"POSITION":5,
				"NORMAL":6,
				"TEXCOORD_0":7
			},
			"indices":4,
			"material":0
		}]
	},
	{
		"primitives":[{
			"attributes":{
				"POSITION":9,
				"NORMAL":10,
				"TEXCOORD_0":11
			},
			"indices":8,
			"material":0
		}]
	}],
	"accessors":[{
		"byteOffset":0,
		"bufferView":0,
		"type":"SCALAR",
		"componentType":5123,
		"count":3072,
		"min":[0],
		"max":[701]
	},
	{
		"byteOffset":0,
		"bufferView":1,
		"type":"VEC3",
		"componentType":5126,
		"count":702,
		"min":[0.17210234701633454,
		-0.019474413245916368,
		-0.07789765298366547],
		"max":[0.32789766788482668,
		0.2523747384548187,
		0.07789765298366547]
	},
	{
		"byteOffset":12,
		"bufferView":1,
		"type":"VEC3",
		"componentType":5126,
		"count":702,
		"min":[-1.0,
		-1.0,
		-1.0],
		"max":[1.0,
		1.0,
		1.0]
	},
	{
		"byteOffset":24,
		"bufferView":1,
		"type":"VEC2",
		"componentType":5126,
		"count":702,
		"min":[0.0,
		0.0],
		"max":[1.0,
		1.0]
	},
	{
		"byteOffset":0,
		"bufferView":2,
		"type":"SCALAR",
		"componentType":5123,
		"count":3072,
		"min":[0],
		"max":[688]
	},
	{
		"byteOffset":0,
		"bufferView":3,
		"type":"VEC3",
		"componentType":5126,
		"count":689,
		"min":[-0.05999999865889549,
		-0.029999999329447748,
		-0.05999999865889549],
		"max":[0.05999999865889549,
		0.029999999329447748,
		0.05999999865889549]
	},
	{
		"byteOffset":12,
		"bufferView":3,
		"type":"VEC3",
		"componentType":5126,
		"count":689,
		"min":[-1.0,
		-0.9999786615371704,
		-1.0],
		"max":[1.0,
		0.9999786615371704,
		1.0]
	},
	{
		"byteOffset":24,
		"bufferView":3,
		"type":"VEC2",
		"componentType":5126,
		"count":689,
		"min":[0.0,
		0.0],
		"max":[1.0,
		1.0]
	},
	{
		"byteOffset":0,
		"bufferView":4,
		"type":"SCALAR",
		"componentType":5123,
		"count":3072,
		"min":[0],
		"max":[701]
	},
	{
		"byteOffset":0,
		"bufferView":5,
		"type":"VEC3",
		"componentType":5126,
		"count":702,
		"min":[-0.048686034977436069,
		-0.03894882649183273,
		-0.048686034977436069],
		"max":[0.048686034977436069,
		0.5047494769096375,
		0.048686034977436069]
	},
	{
		"byteOffset":12,
		"bufferView":5,
		"type":"VEC3",
		"componentType":5126,
		"count":702,
		"min":[-1.0,
		-1.0,
		-1.0],
		"max":[1.0,
		1.0,
		1.0]
	},
	{
		"byteOffset":24,
		"bufferView":5,
		"type":"VEC2",
		"componentType":5126,
		"count":702,
		"min":[0.0,
		0.0],
		"max":[1.0,
		1.0]
	}],
	"bufferViews":[{
		"buffer":0,
		"byteOffset":0,
		"byteLength":6144,
		"target":34963
	},
	{
		"buffer":0,
		"byteOffset":6144,
		"byteLength":22464,
		"target":34962,
		"byteStride":32
	},
	{
		"buffer":1,
		"byteOffset":0,
		"byteLength":6144,
		"target":34963
	},
	{
		"buffer":1,
		"byteOffset":6144,
		"byteLength":22048,
		"target":34962,
		"byteStride":32
	},
	{
		"buffer":2,
		"byteOffset":0,
		"byteLength":6144,
		"target":34963
	},
	{
		"buffer":2,
		"byteOffset":6144,
		"byteLength":22464,
		"target":34962,
		"byteStride":32
	}],
	"buffers":[{
		"uri":"data:application/octet-stream;base64,",
		"byteLength":28608
	},
	{
		"uri":"data:application/octet-stream;base64,",
		"byteLength":28192
	},
	{
		"uri":"data:application/octet-stream;base64,",
		"byteLength":28608
	}],
	"materials":[{
		"pbrMetallicRoughness":{
			"baseColorFactor":[0.3529411764705882,
			0.39215686274509806,
			0.9803921568627451,
			1.0],
			"metallicFactor":0.0,
			"roughnessFactor":0.5
		},
		"emissiveFactor":[0.1,
		0.0,
		0.4],
		"alphaMode":"OPAQUE",
		"doubleSided":true,
		"name":"Plain Violet"
	}]
}